<svg xmlns="http://www.w3.org/2000/svg" viewBox="0 0 824 604">
<style>
	.st0{fill:#020202;stroke:#000000;stroke-width:12.0839;}
	.st1{fill:#00ABDF;stroke:#00ABDF;stroke-width:4.028;}
</style>
<g>
	<g>
		<path class="st0" d="M480.2,557.56v-21.11c-18.52,16.29-43.57,24.43-75.16,24.43c-30.59,0-52.67-5.73-66.23-17.19
			c-5.95-4.92-10.09-10.96-12.4-18.1c-1.65-4.92-2.48-12.57-2.48-22.92V413.4h40.18v79.92c0,12.97,0.83,21.56,2.48,25.79
			c5.29,13.77,20.75,20.66,46.38,20.66c12.07,0,23.23-1.81,33.49-5.43c10.91-3.82,18.56-8.97,22.94-15.46
			c4.38-6.48,6.57-15.91,6.57-28.27V413.4h40.18v144.16H480.2z"/>
		<path class="st0" d="M734.44,557.56v-21.11c-18.52,16.29-43.57,24.43-75.16,24.43c-30.59,0-52.67-5.73-66.23-17.19
			c-5.95-4.92-10.09-10.96-12.4-18.1c-1.65-4.92-2.48-12.57-2.48-22.92V413.4h40.18v79.92c0,12.97,0.83,21.56,2.48,25.79
			c5.29,13.77,20.75,20.66,46.38,20.66c12.07,0,23.23-1.81,33.49-5.43c10.91-3.82,18.56-8.97,22.94-15.46
			c4.38-6.48,6.57-15.91,6.57-28.27V413.4h40.18v144.16H734.44z"/>
	</g>
	<g>
		<rect x="46.22" y="307.8" class="st1" width="71" height="42.13"/>
		<rect x="156.62" y="207.24" class="st1" width="71" height="142.69"/>
		<rect x="266.99" y="78.13" class="st1" width="71.02" height="271.8"/>
		<rect x="377.37" y="110.75" class="st1" width="71" height="239.18"/>
		<rect x="487.77" y="23.76" class="st1" width="71" height="326.17"/>
		<rect x="598.15" y="190.93" class="st1" width="71" height="159"/>
		<rect x="708.53" y="291.49" class="st1" width="71.02" height="58.44"/>
	</g>
	<g>
		<path class="st0" d="M235.4,556.15l35.75,29.77h-40.63l-19.97-16.4c-21.61,7.73-42.15,11.59-61.61,11.59
			c-34.99,0-64.69-9.18-89.11-27.55C35.41,535.2,23.2,512.94,23.2,486.81c0-25.22,12.34-46.83,37.03-64.83
			c24.69-18,54.44-27,89.27-27c34.23,0,63.68,8.95,88.37,26.86c24.69,17.91,37.03,39.29,37.03,64.14
			C274.9,514.12,261.73,537.51,235.4,556.15z M187.16,550.3l-50-41.06h40.63l35.07,28.81c19.3-14.17,28.95-30.95,28.95-50.34
			c0-19.3-9.01-35.51-27.01-48.63c-18.01-13.12-40.37-19.68-67.08-19.68c-25.4,0-47.02,6.67-64.85,20.01
			c-17.83,13.34-26.74,29.51-26.74,48.51s9.11,35.13,27.35,48.37c18.24,13.24,40.46,19.87,66.68,19.87
			C161.11,556.15,173.45,554.2,187.16,550.3z"/>
	</g>
</g>
</svg>
